<svg xmlns="http://www.w3.org/2000/svg" viewBox="0 0 100 120" fill="none">
  <ellipse cx="50" cy="105" rx="38" ry="10" fill="#e30613" stroke="#000" stroke-width="3"/>
  <ellipse cx="50" cy="105" rx="22" ry="5" fill="none" stroke="#fff" stroke-width="2"/>
  <ellipse cx="50" cy="105" rx="22" ry="5" fill="none" stroke="#000" stroke-width="1.5"/>
  <path d="M50 8 C26 8 12 24 12 44 C12 66 36 84 50 104 C64 84 88 66 88 44 C88 24 74 8 50 8 Z" fill="#e30613" stroke="#000" stroke-width="3.5"/>
  <circle cx="50" cy="44" r="15" fill="#fff" stroke="#000" stroke-width="3"/>
  <line x1="50" y1="22" x2="50" y2="36" stroke="#000" stroke-width="3" stroke-linecap="square"/>
  <line x1="50" y1="22" x2="50" y2="36" stroke="#fff" stroke-width="1.2"/>
  <line x1="50" y1="52" x2="50" y2="95" stroke="#000" stroke-width="3" stroke-linecap="square"/>
  <line x1="50" y1="52" x2="50" y2="95" stroke="#fff" stroke-width="1.2"/>
  <line x1="28" y1="44" x2="42" y2="44" stroke="#000" stroke-width="3" stroke-linecap="square"/>
  <line x1="28" y1="44" x2="42" y2="44" stroke="#fff" stroke-width="1.2"/>
  <line x1="58" y1="44" x2="72" y2="44" stroke="#000" stroke-width="3" stroke-linecap="square"/>
  <line x1="58" y1="44" x2="72" y2="44" stroke="#fff" stroke-width="1.2"/>
</svg>
